<mxfile host="app.diagrams.net" modified="2024-05-18T17:47:29.760Z" agent="Mozilla/5.0 (Windows NT 10.0; Win64; x64) AppleWebKit/537.36 (KHTML, like Gecko) Chrome/124.0.0.0 Safari/537.36 Edg/124.0.0.0" etag="SeOaAUq7Smsv5kJK8d-n" version="24.4.4" type="device">
  <diagram name="PÃ¡gina-1" id="NLMvqdlrcohk8Sjxyjb6">
    <mxGraphModel dx="6085" dy="2434" grid="1" gridSize="10" guides="1" tooltips="1" connect="1" arrows="1" fold="1" page="1" pageScale="1" pageWidth="827" pageHeight="1169" math="0" shadow="0">
      <root>
        <mxCell id="0" />
        <mxCell id="1" parent="0" />
        <mxCell id="IG-o2yfS1DpHw0tAkYe_-129" value="Pedidos" style="rounded=0;whiteSpace=wrap;html=1;" parent="1" vertex="1">
          <mxGeometry x="-2560" y="-1054" width="120" height="60" as="geometry" />
        </mxCell>
        <mxCell id="IG-o2yfS1DpHw0tAkYe_-130" value="" style="group" parent="1" vertex="1" connectable="0">
          <mxGeometry x="-2810" y="-794" width="80" height="120" as="geometry" />
        </mxCell>
        <mxCell id="IG-o2yfS1DpHw0tAkYe_-131" value="" style="triangle;whiteSpace=wrap;html=1;rotation=90;fillColor=#000000;" parent="IG-o2yfS1DpHw0tAkYe_-130" vertex="1">
          <mxGeometry x="10" y="50" width="60" height="80" as="geometry" />
        </mxCell>
        <mxCell id="IG-o2yfS1DpHw0tAkYe_-132" value="" style="triangle;whiteSpace=wrap;html=1;rotation=-90;fillColor=#000000;" parent="IG-o2yfS1DpHw0tAkYe_-130" vertex="1">
          <mxGeometry x="10" y="-10" width="60" height="80" as="geometry" />
        </mxCell>
        <mxCell id="IG-o2yfS1DpHw0tAkYe_-133" value="" style="group;rotation=-180;" parent="1" vertex="1" connectable="0">
          <mxGeometry x="-2540" y="-914" width="80" height="120" as="geometry" />
        </mxCell>
        <mxCell id="IG-o2yfS1DpHw0tAkYe_-134" value="" style="triangle;whiteSpace=wrap;html=1;rotation=-90;fillColor=#000000;" parent="IG-o2yfS1DpHw0tAkYe_-133" vertex="1">
          <mxGeometry x="10" y="-10" width="60" height="80" as="geometry" />
        </mxCell>
        <mxCell id="IG-o2yfS1DpHw0tAkYe_-135" value="" style="triangle;whiteSpace=wrap;html=1;rotation=-270;" parent="IG-o2yfS1DpHw0tAkYe_-133" vertex="1">
          <mxGeometry x="10" y="50" width="60" height="80" as="geometry" />
        </mxCell>
        <mxCell id="IG-o2yfS1DpHw0tAkYe_-136" value="Clientes" style="rounded=0;whiteSpace=wrap;html=1;" parent="1" vertex="1">
          <mxGeometry x="-2560" y="-714" width="120" height="60" as="geometry" />
        </mxCell>
        <mxCell id="IG-o2yfS1DpHw0tAkYe_-137" value="" style="endArrow=none;html=1;rounded=0;entryX=0.5;entryY=1;entryDx=0;entryDy=0;exitX=1;exitY=0.5;exitDx=0;exitDy=0;" parent="1" source="IG-o2yfS1DpHw0tAkYe_-134" target="IG-o2yfS1DpHw0tAkYe_-129" edge="1">
          <mxGeometry width="50" height="50" relative="1" as="geometry">
            <mxPoint x="-2620" y="-884" as="sourcePoint" />
            <mxPoint x="-2570" y="-934" as="targetPoint" />
          </mxGeometry>
        </mxCell>
        <mxCell id="IG-o2yfS1DpHw0tAkYe_-138" value="" style="endArrow=none;html=1;rounded=0;entryX=0.5;entryY=0;entryDx=0;entryDy=0;exitX=1;exitY=0.5;exitDx=0;exitDy=0;" parent="1" source="IG-o2yfS1DpHw0tAkYe_-135" target="IG-o2yfS1DpHw0tAkYe_-136" edge="1">
          <mxGeometry width="50" height="50" relative="1" as="geometry">
            <mxPoint x="-2490" y="-904" as="sourcePoint" />
            <mxPoint x="-2490" y="-984" as="targetPoint" />
          </mxGeometry>
        </mxCell>
        <mxCell id="IG-o2yfS1DpHw0tAkYe_-139" value="Realizar" style="text;html=1;align=center;verticalAlign=middle;resizable=0;points=[];autosize=1;strokeColor=none;fillColor=none;" parent="1" vertex="1">
          <mxGeometry x="-2471" y="-868" width="70" height="30" as="geometry" />
        </mxCell>
        <mxCell id="IG-o2yfS1DpHw0tAkYe_-140" value="(0,N)" style="text;html=1;align=center;verticalAlign=middle;resizable=0;points=[];autosize=1;strokeColor=none;fillColor=none;" parent="1" vertex="1">
          <mxGeometry x="-2499" y="-993" width="50" height="30" as="geometry" />
        </mxCell>
        <mxCell id="IG-o2yfS1DpHw0tAkYe_-141" value="(1,1)" style="text;html=1;align=center;verticalAlign=middle;resizable=0;points=[];autosize=1;strokeColor=none;fillColor=none;" parent="1" vertex="1">
          <mxGeometry x="-2499" y="-744" width="50" height="30" as="geometry" />
        </mxCell>
        <mxCell id="IG-o2yfS1DpHw0tAkYe_-150" value="Productos" style="rounded=0;whiteSpace=wrap;html=1;" parent="1" vertex="1">
          <mxGeometry x="-2560" y="-414" width="120" height="60" as="geometry" />
        </mxCell>
        <mxCell id="IG-o2yfS1DpHw0tAkYe_-151" value="" style="endArrow=none;html=1;rounded=0;exitX=1;exitY=0.5;exitDx=0;exitDy=0;entryX=0;entryY=0.5;entryDx=0;entryDy=0;" parent="1" source="IG-o2yfS1DpHw0tAkYe_-131" target="IG-o2yfS1DpHw0tAkYe_-150" edge="1">
          <mxGeometry width="50" height="50" relative="1" as="geometry">
            <mxPoint x="-2530" y="-644" as="sourcePoint" />
            <mxPoint x="-2480" y="-694" as="targetPoint" />
            <Array as="points">
              <mxPoint x="-2770" y="-384" />
            </Array>
          </mxGeometry>
        </mxCell>
        <mxCell id="IG-o2yfS1DpHw0tAkYe_-152" value="" style="endArrow=none;html=1;rounded=0;exitX=0;exitY=0.5;exitDx=0;exitDy=0;entryX=1;entryY=0.5;entryDx=0;entryDy=0;" parent="1" source="IG-o2yfS1DpHw0tAkYe_-129" target="IG-o2yfS1DpHw0tAkYe_-132" edge="1">
          <mxGeometry width="50" height="50" relative="1" as="geometry">
            <mxPoint x="-2760" y="-664" as="sourcePoint" />
            <mxPoint x="-2550" y="-374" as="targetPoint" />
            <Array as="points">
              <mxPoint x="-2770" y="-1024" />
            </Array>
          </mxGeometry>
        </mxCell>
        <mxCell id="IG-o2yfS1DpHw0tAkYe_-153" value="Contener" style="text;html=1;align=center;verticalAlign=middle;resizable=0;points=[];autosize=1;strokeColor=none;fillColor=none;" parent="1" vertex="1">
          <mxGeometry x="-2739" y="-748" width="70" height="30" as="geometry" />
        </mxCell>
        <mxCell id="IG-o2yfS1DpHw0tAkYe_-154" value="(0,N)" style="text;html=1;align=center;verticalAlign=middle;resizable=0;points=[];autosize=1;strokeColor=none;fillColor=none;" parent="1" vertex="1">
          <mxGeometry x="-2610" y="-1024" width="50" height="30" as="geometry" />
        </mxCell>
        <mxCell id="IG-o2yfS1DpHw0tAkYe_-155" value="(1,N)" style="text;html=1;align=center;verticalAlign=middle;resizable=0;points=[];autosize=1;strokeColor=none;fillColor=none;" parent="1" vertex="1">
          <mxGeometry x="-2610" y="-414" width="50" height="30" as="geometry" />
        </mxCell>
        <mxCell id="IG-o2yfS1DpHw0tAkYe_-156" value="Proveedores" style="rounded=0;whiteSpace=wrap;html=1;" parent="1" vertex="1">
          <mxGeometry x="-2200" y="-714" width="120" height="60" as="geometry" />
        </mxCell>
        <mxCell id="IG-o2yfS1DpHw0tAkYe_-157" value="" style="group;rotation=90;" parent="1" vertex="1" connectable="0">
          <mxGeometry x="-2340" y="-444" width="180" height="146" as="geometry" />
        </mxCell>
        <mxCell id="IG-o2yfS1DpHw0tAkYe_-158" value="" style="triangle;whiteSpace=wrap;html=1;rotation=180;fillColor=#000000;" parent="IG-o2yfS1DpHw0tAkYe_-157" vertex="1">
          <mxGeometry x="-20" y="20" width="60" height="80" as="geometry" />
        </mxCell>
        <mxCell id="IG-o2yfS1DpHw0tAkYe_-159" value="" style="triangle;whiteSpace=wrap;html=1;rotation=0;fillColor=#000000;" parent="IG-o2yfS1DpHw0tAkYe_-157" vertex="1">
          <mxGeometry x="40" y="20" width="60" height="80" as="geometry" />
        </mxCell>
        <mxCell id="JvA7WCJ4xtTVsa3NsU07-78" value="nombre" style="ellipse;whiteSpace=wrap;html=1;" vertex="1" parent="IG-o2yfS1DpHw0tAkYe_-157">
          <mxGeometry x="120" y="124" width="50" height="22" as="geometry" />
        </mxCell>
        <mxCell id="IG-o2yfS1DpHw0tAkYe_-160" value="Tienda" style="rounded=0;whiteSpace=wrap;html=1;" parent="1" vertex="1">
          <mxGeometry x="-2160" y="-414" width="120" height="60" as="geometry" />
        </mxCell>
        <mxCell id="IG-o2yfS1DpHw0tAkYe_-161" value="" style="endArrow=none;html=1;rounded=0;exitX=1;exitY=0.5;exitDx=0;exitDy=0;entryX=1;entryY=0.5;entryDx=0;entryDy=0;" parent="1" source="IG-o2yfS1DpHw0tAkYe_-158" target="IG-o2yfS1DpHw0tAkYe_-150" edge="1">
          <mxGeometry width="50" height="50" relative="1" as="geometry">
            <mxPoint x="-2310" y="-564" as="sourcePoint" />
            <mxPoint x="-2260" y="-614" as="targetPoint" />
          </mxGeometry>
        </mxCell>
        <mxCell id="IG-o2yfS1DpHw0tAkYe_-162" value="" style="endArrow=none;html=1;rounded=0;exitX=1;exitY=0.5;exitDx=0;exitDy=0;entryX=0;entryY=0.5;entryDx=0;entryDy=0;" parent="1" source="IG-o2yfS1DpHw0tAkYe_-159" target="IG-o2yfS1DpHw0tAkYe_-160" edge="1">
          <mxGeometry width="50" height="50" relative="1" as="geometry">
            <mxPoint x="-2310" y="-564" as="sourcePoint" />
            <mxPoint x="-2260" y="-614" as="targetPoint" />
          </mxGeometry>
        </mxCell>
        <mxCell id="IG-o2yfS1DpHw0tAkYe_-163" value="Pertenecer" style="text;html=1;align=center;verticalAlign=middle;resizable=0;points=[];autosize=1;strokeColor=none;fillColor=none;" parent="1" vertex="1">
          <mxGeometry x="-2339" y="-351" width="80" height="30" as="geometry" />
        </mxCell>
        <mxCell id="IG-o2yfS1DpHw0tAkYe_-164" value="(0,N)" style="text;html=1;align=center;verticalAlign=middle;resizable=0;points=[];autosize=1;strokeColor=none;fillColor=none;" parent="1" vertex="1">
          <mxGeometry x="-2440" y="-384" width="50" height="30" as="geometry" />
        </mxCell>
        <mxCell id="IG-o2yfS1DpHw0tAkYe_-165" value="(0,N)" style="text;html=1;align=center;verticalAlign=middle;resizable=0;points=[];autosize=1;strokeColor=none;fillColor=none;" parent="1" vertex="1">
          <mxGeometry x="-2210" y="-384" width="50" height="30" as="geometry" />
        </mxCell>
        <mxCell id="IG-o2yfS1DpHw0tAkYe_-166" value="" style="endArrow=none;html=1;rounded=0;exitX=0;exitY=1;exitDx=0;exitDy=0;entryX=1;entryY=0.5;entryDx=0;entryDy=0;" parent="1" source="IG-o2yfS1DpHw0tAkYe_-156" target="IG-o2yfS1DpHw0tAkYe_-169" edge="1">
          <mxGeometry width="50" height="50" relative="1" as="geometry">
            <mxPoint x="-2350" y="-634" as="sourcePoint" />
            <mxPoint x="-2300" y="-684" as="targetPoint" />
          </mxGeometry>
        </mxCell>
        <mxCell id="IG-o2yfS1DpHw0tAkYe_-167" value="" style="group;rotation=45;" parent="1" vertex="1" connectable="0">
          <mxGeometry x="-2360" y="-594" width="80" height="120" as="geometry" />
        </mxCell>
        <mxCell id="IG-o2yfS1DpHw0tAkYe_-168" value="" style="triangle;whiteSpace=wrap;html=1;rotation=135;fillColor=#000000;" parent="IG-o2yfS1DpHw0tAkYe_-167" vertex="1">
          <mxGeometry x="-11" y="41" width="60" height="80" as="geometry" />
        </mxCell>
        <mxCell id="IG-o2yfS1DpHw0tAkYe_-169" value="" style="triangle;whiteSpace=wrap;html=1;rotation=-45;fillColor=#000000;" parent="IG-o2yfS1DpHw0tAkYe_-167" vertex="1">
          <mxGeometry x="31" y="-1" width="60" height="80" as="geometry" />
        </mxCell>
        <mxCell id="IG-o2yfS1DpHw0tAkYe_-170" value="" style="endArrow=none;html=1;rounded=0;exitX=1;exitY=0.5;exitDx=0;exitDy=0;entryX=1;entryY=0;entryDx=0;entryDy=0;" parent="1" source="IG-o2yfS1DpHw0tAkYe_-168" target="IG-o2yfS1DpHw0tAkYe_-150" edge="1">
          <mxGeometry width="50" height="50" relative="1" as="geometry">
            <mxPoint x="-2190" y="-644" as="sourcePoint" />
            <mxPoint x="-2268" y="-566" as="targetPoint" />
          </mxGeometry>
        </mxCell>
        <mxCell id="IG-o2yfS1DpHw0tAkYe_-171" value="Suministrar" style="text;html=1;align=center;verticalAlign=middle;resizable=0;points=[];autosize=1;strokeColor=none;fillColor=none;" parent="1" vertex="1">
          <mxGeometry x="-2299" y="-520" width="80" height="30" as="geometry" />
        </mxCell>
        <mxCell id="IG-o2yfS1DpHw0tAkYe_-172" value="(0,N)" style="text;html=1;align=center;verticalAlign=middle;resizable=0;points=[];autosize=1;strokeColor=none;fillColor=none;" parent="1" vertex="1">
          <mxGeometry x="-2440" y="-434" width="50" height="30" as="geometry" />
        </mxCell>
        <mxCell id="IG-o2yfS1DpHw0tAkYe_-173" value="(0,N)" style="text;html=1;align=center;verticalAlign=middle;resizable=0;points=[];autosize=1;strokeColor=none;fillColor=none;" parent="1" vertex="1">
          <mxGeometry x="-2217" y="-654" width="50" height="30" as="geometry" />
        </mxCell>
        <mxCell id="IG-o2yfS1DpHw0tAkYe_-174" value="" style="triangle;whiteSpace=wrap;html=1;rotation=180;fillColor=#000000;" parent="1" vertex="1">
          <mxGeometry x="-1960" y="-424" width="60" height="80" as="geometry" />
        </mxCell>
        <mxCell id="IG-o2yfS1DpHw0tAkYe_-175" value="" style="triangle;whiteSpace=wrap;html=1;rotation=0;fillColor=#FFFFFF;" parent="1" vertex="1">
          <mxGeometry x="-1900" y="-424" width="60" height="80" as="geometry" />
        </mxCell>
        <mxCell id="IG-o2yfS1DpHw0tAkYe_-176" value="Ciudad" style="rounded=0;whiteSpace=wrap;html=1;" parent="1" vertex="1">
          <mxGeometry x="-1760" y="-414" width="120" height="60" as="geometry" />
        </mxCell>
        <mxCell id="IG-o2yfS1DpHw0tAkYe_-177" value="" style="endArrow=none;html=1;rounded=0;exitX=1;exitY=0.5;exitDx=0;exitDy=0;entryX=1;entryY=0.5;entryDx=0;entryDy=0;" parent="1" source="IG-o2yfS1DpHw0tAkYe_-174" edge="1">
          <mxGeometry width="50" height="50" relative="1" as="geometry">
            <mxPoint x="-1910" y="-564" as="sourcePoint" />
            <mxPoint x="-2040" y="-384" as="targetPoint" />
          </mxGeometry>
        </mxCell>
        <mxCell id="IG-o2yfS1DpHw0tAkYe_-178" value="" style="endArrow=none;html=1;rounded=0;exitX=1;exitY=0.5;exitDx=0;exitDy=0;entryX=0;entryY=0.5;entryDx=0;entryDy=0;" parent="1" source="IG-o2yfS1DpHw0tAkYe_-175" target="IG-o2yfS1DpHw0tAkYe_-176" edge="1">
          <mxGeometry width="50" height="50" relative="1" as="geometry">
            <mxPoint x="-1910" y="-564" as="sourcePoint" />
            <mxPoint x="-1860" y="-614" as="targetPoint" />
          </mxGeometry>
        </mxCell>
        <mxCell id="IG-o2yfS1DpHw0tAkYe_-179" value="Estar" style="text;html=1;align=center;verticalAlign=middle;resizable=0;points=[];autosize=1;strokeColor=none;fillColor=none;" parent="1" vertex="1">
          <mxGeometry x="-1927" y="-351" width="50" height="30" as="geometry" />
        </mxCell>
        <mxCell id="IG-o2yfS1DpHw0tAkYe_-180" value="(0,N)" style="text;html=1;align=center;verticalAlign=middle;resizable=0;points=[];autosize=1;strokeColor=none;fillColor=none;" parent="1" vertex="1">
          <mxGeometry x="-2040" y="-384" width="50" height="30" as="geometry" />
        </mxCell>
        <mxCell id="IG-o2yfS1DpHw0tAkYe_-181" value="(1,1)" style="text;html=1;align=center;verticalAlign=middle;resizable=0;points=[];autosize=1;strokeColor=none;fillColor=none;" parent="1" vertex="1">
          <mxGeometry x="-1810" y="-384" width="50" height="30" as="geometry" />
        </mxCell>
        <mxCell id="IG-o2yfS1DpHw0tAkYe_-182" value="" style="group;rotation=0;" parent="1" vertex="1" connectable="0">
          <mxGeometry x="-1950" y="-644" width="80" height="120" as="geometry" />
        </mxCell>
        <mxCell id="IG-o2yfS1DpHw0tAkYe_-183" value="" style="triangle;whiteSpace=wrap;html=1;rotation=90;fillColor=#FFFFFF;" parent="IG-o2yfS1DpHw0tAkYe_-182" vertex="1">
          <mxGeometry x="10" y="50" width="60" height="80" as="geometry" />
        </mxCell>
        <mxCell id="IG-o2yfS1DpHw0tAkYe_-184" value="" style="triangle;whiteSpace=wrap;html=1;rotation=-90;fillColor=#000000;" parent="IG-o2yfS1DpHw0tAkYe_-182" vertex="1">
          <mxGeometry x="10" y="-10" width="60" height="80" as="geometry" />
        </mxCell>
        <mxCell id="IG-o2yfS1DpHw0tAkYe_-185" value="" style="endArrow=none;html=1;rounded=0;exitX=1;exitY=0.5;exitDx=0;exitDy=0;entryX=1;entryY=0.5;entryDx=0;entryDy=0;" parent="1" source="IG-o2yfS1DpHw0tAkYe_-184" target="IG-o2yfS1DpHw0tAkYe_-156" edge="1">
          <mxGeometry width="50" height="50" relative="1" as="geometry">
            <mxPoint x="-2190" y="-644" as="sourcePoint" />
            <mxPoint x="-2268" y="-566" as="targetPoint" />
            <Array as="points">
              <mxPoint x="-1910" y="-684" />
            </Array>
          </mxGeometry>
        </mxCell>
        <mxCell id="IG-o2yfS1DpHw0tAkYe_-186" value="" style="endArrow=none;html=1;rounded=0;exitX=0.5;exitY=0;exitDx=0;exitDy=0;entryX=1;entryY=0.5;entryDx=0;entryDy=0;" parent="1" source="IG-o2yfS1DpHw0tAkYe_-176" target="IG-o2yfS1DpHw0tAkYe_-183" edge="1">
          <mxGeometry width="50" height="50" relative="1" as="geometry">
            <mxPoint x="-1975" y="-568" as="sourcePoint" />
            <mxPoint x="-2070" y="-644" as="targetPoint" />
            <Array as="points">
              <mxPoint x="-1700" y="-484" />
              <mxPoint x="-1910" y="-484" />
            </Array>
          </mxGeometry>
        </mxCell>
        <mxCell id="IG-o2yfS1DpHw0tAkYe_-187" value="Ser" style="text;html=1;align=center;verticalAlign=middle;resizable=0;points=[];autosize=1;strokeColor=none;fillColor=none;" parent="1" vertex="1">
          <mxGeometry x="-1878" y="-598" width="40" height="30" as="geometry" />
        </mxCell>
        <mxCell id="IG-o2yfS1DpHw0tAkYe_-188" value="(1,N)" style="text;html=1;align=center;verticalAlign=middle;resizable=0;points=[];autosize=1;strokeColor=none;fillColor=none;" parent="1" vertex="1">
          <mxGeometry x="-2080" y="-684" width="50" height="30" as="geometry" />
        </mxCell>
        <mxCell id="IG-o2yfS1DpHw0tAkYe_-189" value="(1,1)" style="text;html=1;align=center;verticalAlign=middle;resizable=0;points=[];autosize=1;strokeColor=none;fillColor=none;" parent="1" vertex="1">
          <mxGeometry x="-1750" y="-444" width="50" height="30" as="geometry" />
        </mxCell>
        <mxCell id="IG-o2yfS1DpHw0tAkYe_-190" value="" style="group;rotation=-180;" parent="1" vertex="1" connectable="0">
          <mxGeometry x="-2540" y="-274" width="80" height="120" as="geometry" />
        </mxCell>
        <mxCell id="IG-o2yfS1DpHw0tAkYe_-191" value="" style="triangle;whiteSpace=wrap;html=1;rotation=-90;fillColor=#000000;" parent="IG-o2yfS1DpHw0tAkYe_-190" vertex="1">
          <mxGeometry x="10" y="-10" width="60" height="80" as="geometry" />
        </mxCell>
        <mxCell id="IG-o2yfS1DpHw0tAkYe_-192" value="" style="triangle;whiteSpace=wrap;html=1;rotation=-270;" parent="IG-o2yfS1DpHw0tAkYe_-190" vertex="1">
          <mxGeometry x="10" y="50" width="60" height="80" as="geometry" />
        </mxCell>
        <mxCell id="IG-o2yfS1DpHw0tAkYe_-193" value="Tipo" style="rounded=0;whiteSpace=wrap;html=1;" parent="1" vertex="1">
          <mxGeometry x="-2560" y="-74" width="120" height="60" as="geometry" />
        </mxCell>
        <mxCell id="IG-o2yfS1DpHw0tAkYe_-194" value="" style="endArrow=none;html=1;rounded=0;exitX=1;exitY=0.5;exitDx=0;exitDy=0;entryX=0.5;entryY=1;entryDx=0;entryDy=0;" parent="1" source="IG-o2yfS1DpHw0tAkYe_-191" target="IG-o2yfS1DpHw0tAkYe_-150" edge="1">
          <mxGeometry width="50" height="50" relative="1" as="geometry">
            <mxPoint x="-2620" y="-244" as="sourcePoint" />
            <mxPoint x="-2510" y="-344" as="targetPoint" />
          </mxGeometry>
        </mxCell>
        <mxCell id="IG-o2yfS1DpHw0tAkYe_-195" value="" style="endArrow=none;html=1;rounded=0;entryX=0.5;entryY=0;entryDx=0;entryDy=0;exitX=1;exitY=0.5;exitDx=0;exitDy=0;" parent="1" source="IG-o2yfS1DpHw0tAkYe_-192" target="IG-o2yfS1DpHw0tAkYe_-193" edge="1">
          <mxGeometry width="50" height="50" relative="1" as="geometry">
            <mxPoint x="-2490" y="-264" as="sourcePoint" />
            <mxPoint x="-2490" y="-344" as="targetPoint" />
          </mxGeometry>
        </mxCell>
        <mxCell id="IG-o2yfS1DpHw0tAkYe_-196" value="Tener" style="text;html=1;align=center;verticalAlign=middle;resizable=0;points=[];autosize=1;strokeColor=none;fillColor=none;" parent="1" vertex="1">
          <mxGeometry x="-2461" y="-228" width="50" height="30" as="geometry" />
        </mxCell>
        <mxCell id="IG-o2yfS1DpHw0tAkYe_-197" value="(1,N)" style="text;html=1;align=center;verticalAlign=middle;resizable=0;points=[];autosize=1;strokeColor=none;fillColor=none;" parent="1" vertex="1">
          <mxGeometry x="-2499" y="-353" width="50" height="30" as="geometry" />
        </mxCell>
        <mxCell id="IG-o2yfS1DpHw0tAkYe_-198" value="(1,1)" style="text;html=1;align=center;verticalAlign=middle;resizable=0;points=[];autosize=1;strokeColor=none;fillColor=none;" parent="1" vertex="1">
          <mxGeometry x="-2499" y="-104" width="50" height="30" as="geometry" />
        </mxCell>
        <mxCell id="IG-o2yfS1DpHw0tAkYe_-199" value="" style="group;rotation=-180;" parent="1" vertex="1" connectable="0">
          <mxGeometry x="-2140" y="-274" width="80" height="120" as="geometry" />
        </mxCell>
        <mxCell id="IG-o2yfS1DpHw0tAkYe_-200" value="" style="triangle;whiteSpace=wrap;html=1;rotation=-90;fillColor=#FFFFFF;" parent="IG-o2yfS1DpHw0tAkYe_-199" vertex="1">
          <mxGeometry x="10" y="-10" width="60" height="80" as="geometry" />
        </mxCell>
        <mxCell id="IG-o2yfS1DpHw0tAkYe_-201" value="" style="triangle;whiteSpace=wrap;html=1;rotation=-270;fillColor=#000000;" parent="IG-o2yfS1DpHw0tAkYe_-199" vertex="1">
          <mxGeometry x="10" y="50" width="60" height="80" as="geometry" />
        </mxCell>
        <mxCell id="IG-o2yfS1DpHw0tAkYe_-202" value="Empleados" style="rounded=0;whiteSpace=wrap;html=1;" parent="1" vertex="1">
          <mxGeometry x="-2160" y="-74" width="120" height="60" as="geometry" />
        </mxCell>
        <mxCell id="IG-o2yfS1DpHw0tAkYe_-203" value="" style="endArrow=none;html=1;rounded=0;entryX=0.5;entryY=1;entryDx=0;entryDy=0;exitX=1;exitY=0.5;exitDx=0;exitDy=0;" parent="1" source="IG-o2yfS1DpHw0tAkYe_-200" edge="1">
          <mxGeometry width="50" height="50" relative="1" as="geometry">
            <mxPoint x="-2220" y="-244" as="sourcePoint" />
            <mxPoint x="-2100" y="-354" as="targetPoint" />
          </mxGeometry>
        </mxCell>
        <mxCell id="IG-o2yfS1DpHw0tAkYe_-204" value="" style="endArrow=none;html=1;rounded=0;entryX=0.5;entryY=0;entryDx=0;entryDy=0;exitX=1;exitY=0.5;exitDx=0;exitDy=0;" parent="1" source="IG-o2yfS1DpHw0tAkYe_-201" target="IG-o2yfS1DpHw0tAkYe_-202" edge="1">
          <mxGeometry width="50" height="50" relative="1" as="geometry">
            <mxPoint x="-2090" y="-264" as="sourcePoint" />
            <mxPoint x="-2090" y="-344" as="targetPoint" />
          </mxGeometry>
        </mxCell>
        <mxCell id="IG-o2yfS1DpHw0tAkYe_-205" value="Trabajar" style="text;html=1;align=center;verticalAlign=middle;resizable=0;points=[];autosize=1;strokeColor=none;fillColor=none;" parent="1" vertex="1">
          <mxGeometry x="-2071" y="-228" width="70" height="30" as="geometry" />
        </mxCell>
        <mxCell id="IG-o2yfS1DpHw0tAkYe_-206" value="(1,1)" style="text;html=1;align=center;verticalAlign=middle;resizable=0;points=[];autosize=1;strokeColor=none;fillColor=none;" parent="1" vertex="1">
          <mxGeometry x="-2099" y="-353" width="50" height="30" as="geometry" />
        </mxCell>
        <mxCell id="IG-o2yfS1DpHw0tAkYe_-207" value="(1,N)" style="text;html=1;align=center;verticalAlign=middle;resizable=0;points=[];autosize=1;strokeColor=none;fillColor=none;" parent="1" vertex="1">
          <mxGeometry x="-2099" y="-104" width="50" height="30" as="geometry" />
        </mxCell>
        <mxCell id="JvA7WCJ4xtTVsa3NsU07-1" value="&lt;u&gt;id&lt;/u&gt;" style="ellipse;whiteSpace=wrap;html=1;" vertex="1" parent="1">
          <mxGeometry x="-2650" y="-714" width="50" height="24" as="geometry" />
        </mxCell>
        <mxCell id="JvA7WCJ4xtTVsa3NsU07-2" value="nombre" style="ellipse;whiteSpace=wrap;html=1;" vertex="1" parent="1">
          <mxGeometry x="-2650" y="-651" width="50" height="24" as="geometry" />
        </mxCell>
        <mxCell id="JvA7WCJ4xtTVsa3NsU07-3" value="telefono" style="ellipse;whiteSpace=wrap;html=1;" vertex="1" parent="1">
          <mxGeometry x="-2411" y="-651" width="50" height="24" as="geometry" />
        </mxCell>
        <mxCell id="JvA7WCJ4xtTVsa3NsU07-4" value="fechaNac" style="ellipse;whiteSpace=wrap;html=1;" vertex="1" parent="1">
          <mxGeometry x="-2490" y="-624" width="60" height="24" as="geometry" />
        </mxCell>
        <mxCell id="JvA7WCJ4xtTVsa3NsU07-5" value="genero" style="ellipse;whiteSpace=wrap;html=1;" vertex="1" parent="1">
          <mxGeometry x="-2580" y="-624" width="50" height="24" as="geometry" />
        </mxCell>
        <mxCell id="JvA7WCJ4xtTVsa3NsU07-6" value="direccion" style="ellipse;whiteSpace=wrap;html=1;" vertex="1" parent="1">
          <mxGeometry x="-2401" y="-718" width="60" height="28" as="geometry" />
        </mxCell>
        <mxCell id="JvA7WCJ4xtTVsa3NsU07-7" value="" style="endArrow=none;html=1;rounded=0;exitX=1;exitY=0.5;exitDx=0;exitDy=0;entryX=0;entryY=0.25;entryDx=0;entryDy=0;" edge="1" parent="1" source="JvA7WCJ4xtTVsa3NsU07-1" target="IG-o2yfS1DpHw0tAkYe_-136">
          <mxGeometry width="50" height="50" relative="1" as="geometry">
            <mxPoint x="-2320" y="-650" as="sourcePoint" />
            <mxPoint x="-2270" y="-700" as="targetPoint" />
          </mxGeometry>
        </mxCell>
        <mxCell id="JvA7WCJ4xtTVsa3NsU07-8" value="" style="endArrow=none;html=1;rounded=0;exitX=1;exitY=0;exitDx=0;exitDy=0;entryX=0;entryY=0.75;entryDx=0;entryDy=0;" edge="1" parent="1" source="JvA7WCJ4xtTVsa3NsU07-2" target="IG-o2yfS1DpHw0tAkYe_-136">
          <mxGeometry width="50" height="50" relative="1" as="geometry">
            <mxPoint x="-2590" y="-692" as="sourcePoint" />
            <mxPoint x="-2550" y="-689" as="targetPoint" />
          </mxGeometry>
        </mxCell>
        <mxCell id="JvA7WCJ4xtTVsa3NsU07-9" value="" style="endArrow=none;html=1;rounded=0;exitX=0.5;exitY=0;exitDx=0;exitDy=0;entryX=0.25;entryY=1;entryDx=0;entryDy=0;" edge="1" parent="1" source="JvA7WCJ4xtTVsa3NsU07-5" target="IG-o2yfS1DpHw0tAkYe_-136">
          <mxGeometry width="50" height="50" relative="1" as="geometry">
            <mxPoint x="-2580" y="-682" as="sourcePoint" />
            <mxPoint x="-2540" y="-679" as="targetPoint" />
          </mxGeometry>
        </mxCell>
        <mxCell id="JvA7WCJ4xtTVsa3NsU07-10" value="" style="endArrow=none;html=1;rounded=0;exitX=0.75;exitY=1;exitDx=0;exitDy=0;entryX=0.5;entryY=0;entryDx=0;entryDy=0;" edge="1" parent="1" source="IG-o2yfS1DpHw0tAkYe_-136" target="JvA7WCJ4xtTVsa3NsU07-4">
          <mxGeometry width="50" height="50" relative="1" as="geometry">
            <mxPoint x="-2570" y="-672" as="sourcePoint" />
            <mxPoint x="-2530" y="-669" as="targetPoint" />
          </mxGeometry>
        </mxCell>
        <mxCell id="JvA7WCJ4xtTVsa3NsU07-11" value="" style="endArrow=none;html=1;rounded=0;exitX=1;exitY=0.75;exitDx=0;exitDy=0;entryX=0;entryY=0.5;entryDx=0;entryDy=0;" edge="1" parent="1" source="IG-o2yfS1DpHw0tAkYe_-136" target="JvA7WCJ4xtTVsa3NsU07-3">
          <mxGeometry width="50" height="50" relative="1" as="geometry">
            <mxPoint x="-2560" y="-662" as="sourcePoint" />
            <mxPoint x="-2520" y="-659" as="targetPoint" />
          </mxGeometry>
        </mxCell>
        <mxCell id="JvA7WCJ4xtTVsa3NsU07-12" value="" style="endArrow=none;html=1;rounded=0;exitX=1;exitY=0.25;exitDx=0;exitDy=0;entryX=0;entryY=0.5;entryDx=0;entryDy=0;" edge="1" parent="1" source="IG-o2yfS1DpHw0tAkYe_-136" target="JvA7WCJ4xtTVsa3NsU07-6">
          <mxGeometry width="50" height="50" relative="1" as="geometry">
            <mxPoint x="-2550" y="-652" as="sourcePoint" />
            <mxPoint x="-2510" y="-649" as="targetPoint" />
          </mxGeometry>
        </mxCell>
        <mxCell id="JvA7WCJ4xtTVsa3NsU07-15" value="&lt;u&gt;id&lt;/u&gt;" style="ellipse;whiteSpace=wrap;html=1;" vertex="1" parent="1">
          <mxGeometry x="-2650" y="-1075" width="50" height="24" as="geometry" />
        </mxCell>
        <mxCell id="JvA7WCJ4xtTVsa3NsU07-16" value="fecha" style="ellipse;whiteSpace=wrap;html=1;" vertex="1" parent="1">
          <mxGeometry x="-2610" y="-1117" width="50" height="24" as="geometry" />
        </mxCell>
        <mxCell id="JvA7WCJ4xtTVsa3NsU07-17" value="idCliente" style="ellipse;whiteSpace=wrap;html=1;" vertex="1" parent="1">
          <mxGeometry x="-2540" y="-1141" width="60" height="21" as="geometry" />
        </mxCell>
        <mxCell id="JvA7WCJ4xtTVsa3NsU07-18" value="" style="endArrow=none;html=1;rounded=0;exitX=1;exitY=0.5;exitDx=0;exitDy=0;entryX=0;entryY=0.25;entryDx=0;entryDy=0;" edge="1" parent="1" source="JvA7WCJ4xtTVsa3NsU07-15" target="IG-o2yfS1DpHw0tAkYe_-129">
          <mxGeometry width="50" height="50" relative="1" as="geometry">
            <mxPoint x="-2350" y="-1106" as="sourcePoint" />
            <mxPoint x="-2590" y="-1155" as="targetPoint" />
          </mxGeometry>
        </mxCell>
        <mxCell id="JvA7WCJ4xtTVsa3NsU07-19" value="" style="endArrow=none;html=1;rounded=0;exitX=1;exitY=1;exitDx=0;exitDy=0;entryX=0.25;entryY=0;entryDx=0;entryDy=0;" edge="1" parent="1" source="JvA7WCJ4xtTVsa3NsU07-16" target="IG-o2yfS1DpHw0tAkYe_-129">
          <mxGeometry width="50" height="50" relative="1" as="geometry">
            <mxPoint x="-2480" y="-1233" as="sourcePoint" />
            <mxPoint x="-2450" y="-1210" as="targetPoint" />
          </mxGeometry>
        </mxCell>
        <mxCell id="JvA7WCJ4xtTVsa3NsU07-20" value="" style="endArrow=none;html=1;rounded=0;exitX=0.5;exitY=1;exitDx=0;exitDy=0;entryX=0.5;entryY=0;entryDx=0;entryDy=0;" edge="1" parent="1" source="JvA7WCJ4xtTVsa3NsU07-17" target="IG-o2yfS1DpHw0tAkYe_-129">
          <mxGeometry width="50" height="50" relative="1" as="geometry">
            <mxPoint x="-2470" y="-1223" as="sourcePoint" />
            <mxPoint x="-2420" y="-1195" as="targetPoint" />
          </mxGeometry>
        </mxCell>
        <mxCell id="JvA7WCJ4xtTVsa3NsU07-21" value="estado" style="ellipse;whiteSpace=wrap;html=1;" vertex="1" parent="1">
          <mxGeometry x="-2370" y="-1036" width="50" height="24" as="geometry" />
        </mxCell>
        <mxCell id="JvA7WCJ4xtTVsa3NsU07-22" value="idProductos" style="ellipse;whiteSpace=wrap;html=1;" vertex="1" parent="1">
          <mxGeometry x="-2461" y="-1130" width="71" height="30" as="geometry" />
        </mxCell>
        <mxCell id="JvA7WCJ4xtTVsa3NsU07-23" value="totalPedido" style="ellipse;whiteSpace=wrap;html=1;" vertex="1" parent="1">
          <mxGeometry x="-2375" y="-1093" width="65" height="33" as="geometry" />
        </mxCell>
        <mxCell id="JvA7WCJ4xtTVsa3NsU07-24" value="" style="endArrow=none;html=1;rounded=0;exitX=0.75;exitY=0;exitDx=0;exitDy=0;entryX=0.5;entryY=1;entryDx=0;entryDy=0;" edge="1" parent="1" target="JvA7WCJ4xtTVsa3NsU07-22" source="IG-o2yfS1DpHw0tAkYe_-129">
          <mxGeometry width="50" height="50" relative="1" as="geometry">
            <mxPoint x="-2400" y="-1105" as="sourcePoint" />
            <mxPoint x="-2460" y="-1120" as="targetPoint" />
          </mxGeometry>
        </mxCell>
        <mxCell id="JvA7WCJ4xtTVsa3NsU07-25" value="" style="endArrow=none;html=1;rounded=0;exitX=1;exitY=0.75;exitDx=0;exitDy=0;entryX=0;entryY=0.5;entryDx=0;entryDy=0;" edge="1" parent="1" target="JvA7WCJ4xtTVsa3NsU07-21" source="IG-o2yfS1DpHw0tAkYe_-129">
          <mxGeometry width="50" height="50" relative="1" as="geometry">
            <mxPoint x="-2370" y="-1120" as="sourcePoint" />
            <mxPoint x="-2450" y="-1110" as="targetPoint" />
          </mxGeometry>
        </mxCell>
        <mxCell id="JvA7WCJ4xtTVsa3NsU07-26" value="" style="endArrow=none;html=1;rounded=0;exitX=1;exitY=0.25;exitDx=0;exitDy=0;entryX=0;entryY=1;entryDx=0;entryDy=0;" edge="1" parent="1" target="JvA7WCJ4xtTVsa3NsU07-23" source="IG-o2yfS1DpHw0tAkYe_-129">
          <mxGeometry width="50" height="50" relative="1" as="geometry">
            <mxPoint x="-2370" y="-1150" as="sourcePoint" />
            <mxPoint x="-2440" y="-1100" as="targetPoint" />
          </mxGeometry>
        </mxCell>
        <mxCell id="JvA7WCJ4xtTVsa3NsU07-28" value="&lt;u&gt;id&lt;/u&gt;" style="ellipse;whiteSpace=wrap;html=1;" vertex="1" parent="1">
          <mxGeometry x="-2555" y="-321" width="50" height="24" as="geometry" />
        </mxCell>
        <mxCell id="JvA7WCJ4xtTVsa3NsU07-29" value="marca" style="ellipse;whiteSpace=wrap;html=1;" vertex="1" parent="1">
          <mxGeometry x="-2640" y="-321" width="50" height="24" as="geometry" />
        </mxCell>
        <mxCell id="JvA7WCJ4xtTVsa3NsU07-30" value="idTipo" style="ellipse;whiteSpace=wrap;html=1;" vertex="1" parent="1">
          <mxGeometry x="-2650" y="-465" width="60" height="21" as="geometry" />
        </mxCell>
        <mxCell id="JvA7WCJ4xtTVsa3NsU07-31" value="" style="endArrow=none;html=1;rounded=0;exitX=0.5;exitY=0;exitDx=0;exitDy=0;entryX=0.25;entryY=1;entryDx=0;entryDy=0;" edge="1" parent="1" source="JvA7WCJ4xtTVsa3NsU07-28" target="IG-o2yfS1DpHw0tAkYe_-150">
          <mxGeometry width="50" height="50" relative="1" as="geometry">
            <mxPoint x="-2410" y="-521" as="sourcePoint" />
            <mxPoint x="-2620" y="-454" as="targetPoint" />
          </mxGeometry>
        </mxCell>
        <mxCell id="JvA7WCJ4xtTVsa3NsU07-32" value="" style="endArrow=none;html=1;rounded=0;exitX=1;exitY=0;exitDx=0;exitDy=0;entryX=0;entryY=1;entryDx=0;entryDy=0;" edge="1" parent="1" source="JvA7WCJ4xtTVsa3NsU07-29" target="IG-o2yfS1DpHw0tAkYe_-150">
          <mxGeometry width="50" height="50" relative="1" as="geometry">
            <mxPoint x="-2540" y="-648" as="sourcePoint" />
            <mxPoint x="-2590" y="-469" as="targetPoint" />
          </mxGeometry>
        </mxCell>
        <mxCell id="JvA7WCJ4xtTVsa3NsU07-33" value="" style="endArrow=none;html=1;rounded=0;exitX=0.5;exitY=1;exitDx=0;exitDy=0;entryX=0;entryY=0.25;entryDx=0;entryDy=0;" edge="1" parent="1" source="JvA7WCJ4xtTVsa3NsU07-30" target="IG-o2yfS1DpHw0tAkYe_-150">
          <mxGeometry width="50" height="50" relative="1" as="geometry">
            <mxPoint x="-2530" y="-638" as="sourcePoint" />
            <mxPoint x="-2560" y="-469" as="targetPoint" />
          </mxGeometry>
        </mxCell>
        <mxCell id="JvA7WCJ4xtTVsa3NsU07-35" value="precio" style="ellipse;whiteSpace=wrap;html=1;" vertex="1" parent="1">
          <mxGeometry x="-2590.5" y="-490" width="50.5" height="25" as="geometry" />
        </mxCell>
        <mxCell id="JvA7WCJ4xtTVsa3NsU07-36" value="material" style="ellipse;whiteSpace=wrap;html=1;" vertex="1" parent="1">
          <mxGeometry x="-2460" y="-501" width="56" height="27" as="geometry" />
        </mxCell>
        <mxCell id="JvA7WCJ4xtTVsa3NsU07-37" value="" style="endArrow=none;html=1;rounded=0;exitX=0.25;exitY=0;exitDx=0;exitDy=0;entryX=0.5;entryY=1;entryDx=0;entryDy=0;" edge="1" parent="1" target="JvA7WCJ4xtTVsa3NsU07-35" source="IG-o2yfS1DpHw0tAkYe_-150">
          <mxGeometry width="50" height="50" relative="1" as="geometry">
            <mxPoint x="-2530" y="-469" as="sourcePoint" />
            <mxPoint x="-2520" y="-535" as="targetPoint" />
          </mxGeometry>
        </mxCell>
        <mxCell id="JvA7WCJ4xtTVsa3NsU07-39" value="" style="endArrow=none;html=1;rounded=0;exitX=0.75;exitY=0;exitDx=0;exitDy=0;entryX=0;entryY=1;entryDx=0;entryDy=0;" edge="1" parent="1" target="JvA7WCJ4xtTVsa3NsU07-36" source="IG-o2yfS1DpHw0tAkYe_-150">
          <mxGeometry width="50" height="50" relative="1" as="geometry">
            <mxPoint x="-2500" y="-454" as="sourcePoint" />
            <mxPoint x="-2500" y="-515" as="targetPoint" />
          </mxGeometry>
        </mxCell>
        <mxCell id="JvA7WCJ4xtTVsa3NsU07-40" value="nombre" style="ellipse;whiteSpace=wrap;html=1;" vertex="1" parent="1">
          <mxGeometry x="-2425" y="-334" width="50" height="24" as="geometry" />
        </mxCell>
        <mxCell id="JvA7WCJ4xtTVsa3NsU07-41" value="" style="endArrow=none;html=1;rounded=0;exitX=1;exitY=1;exitDx=0;exitDy=0;entryX=0;entryY=0;entryDx=0;entryDy=0;" edge="1" parent="1" target="JvA7WCJ4xtTVsa3NsU07-40" source="IG-o2yfS1DpHw0tAkYe_-150">
          <mxGeometry width="50" height="50" relative="1" as="geometry">
            <mxPoint x="-2449.5" y="-314.5" as="sourcePoint" />
            <mxPoint x="-2471" y="-370" as="targetPoint" />
          </mxGeometry>
        </mxCell>
        <mxCell id="JvA7WCJ4xtTVsa3NsU07-42" value="color" style="ellipse;whiteSpace=wrap;html=1;" vertex="1" parent="1">
          <mxGeometry x="-2669" y="-358" width="50" height="24" as="geometry" />
        </mxCell>
        <mxCell id="JvA7WCJ4xtTVsa3NsU07-43" value="" style="endArrow=none;html=1;rounded=0;exitX=1;exitY=0;exitDx=0;exitDy=0;entryX=0;entryY=0.75;entryDx=0;entryDy=0;" edge="1" parent="1" source="JvA7WCJ4xtTVsa3NsU07-42" target="IG-o2yfS1DpHw0tAkYe_-150">
          <mxGeometry width="50" height="50" relative="1" as="geometry">
            <mxPoint x="-2569" y="-685" as="sourcePoint" />
            <mxPoint x="-2599" y="-416" as="targetPoint" />
          </mxGeometry>
        </mxCell>
        <mxCell id="JvA7WCJ4xtTVsa3NsU07-44" value="talla" style="ellipse;whiteSpace=wrap;html=1;" vertex="1" parent="1">
          <mxGeometry x="-2530" y="-501" width="50.5" height="25" as="geometry" />
        </mxCell>
        <mxCell id="JvA7WCJ4xtTVsa3NsU07-45" value="" style="endArrow=none;html=1;rounded=0;exitX=0.5;exitY=0;exitDx=0;exitDy=0;entryX=0.5;entryY=1;entryDx=0;entryDy=0;" edge="1" parent="1" target="JvA7WCJ4xtTVsa3NsU07-44" source="IG-o2yfS1DpHw0tAkYe_-150">
          <mxGeometry width="50" height="50" relative="1" as="geometry">
            <mxPoint x="-2480.5" y="-414" as="sourcePoint" />
            <mxPoint x="-2475.5" y="-560.5" as="targetPoint" />
          </mxGeometry>
        </mxCell>
        <mxCell id="JvA7WCJ4xtTVsa3NsU07-46" value="&lt;u&gt;id&lt;/u&gt;" style="ellipse;whiteSpace=wrap;html=1;" vertex="1" parent="1">
          <mxGeometry x="-2555" y="40" width="50" height="24" as="geometry" />
        </mxCell>
        <mxCell id="JvA7WCJ4xtTVsa3NsU07-47" value="" style="endArrow=none;html=1;rounded=0;exitX=0.5;exitY=0;exitDx=0;exitDy=0;entryX=0.25;entryY=1;entryDx=0;entryDy=0;" edge="1" parent="1" source="JvA7WCJ4xtTVsa3NsU07-46" target="IG-o2yfS1DpHw0tAkYe_-193">
          <mxGeometry width="50" height="50" relative="1" as="geometry">
            <mxPoint x="-2445" y="-157" as="sourcePoint" />
            <mxPoint x="-2565" y="10" as="targetPoint" />
          </mxGeometry>
        </mxCell>
        <mxCell id="JvA7WCJ4xtTVsa3NsU07-48" value="nombre" style="ellipse;whiteSpace=wrap;html=1;" vertex="1" parent="1">
          <mxGeometry x="-2495" y="25" width="50" height="24" as="geometry" />
        </mxCell>
        <mxCell id="JvA7WCJ4xtTVsa3NsU07-49" value="" style="endArrow=none;html=1;rounded=0;entryX=0.5;entryY=0;entryDx=0;entryDy=0;exitX=0.75;exitY=1;exitDx=0;exitDy=0;" edge="1" parent="1" target="JvA7WCJ4xtTVsa3NsU07-48" source="IG-o2yfS1DpHw0tAkYe_-193">
          <mxGeometry width="50" height="50" relative="1" as="geometry">
            <mxPoint x="-2475" y="10" as="sourcePoint" />
            <mxPoint x="-2506" y="-6" as="targetPoint" />
          </mxGeometry>
        </mxCell>
        <mxCell id="JvA7WCJ4xtTVsa3NsU07-50" value="&lt;u&gt;id&lt;/u&gt;" style="ellipse;whiteSpace=wrap;html=1;" vertex="1" parent="1">
          <mxGeometry x="-2125" y="27" width="50" height="24" as="geometry" />
        </mxCell>
        <mxCell id="JvA7WCJ4xtTVsa3NsU07-51" value="apellidos" style="ellipse;whiteSpace=wrap;html=1;" vertex="1" parent="1">
          <mxGeometry x="-2000" y="3" width="60" height="27" as="geometry" />
        </mxCell>
        <mxCell id="JvA7WCJ4xtTVsa3NsU07-52" value="fechaCont" style="ellipse;whiteSpace=wrap;html=1;" vertex="1" parent="1">
          <mxGeometry x="-2251" y="-128" width="61" height="28" as="geometry" />
        </mxCell>
        <mxCell id="JvA7WCJ4xtTVsa3NsU07-53" value="" style="endArrow=none;html=1;rounded=0;exitX=0.5;exitY=0;exitDx=0;exitDy=0;entryX=0.5;entryY=1;entryDx=0;entryDy=0;" edge="1" parent="1" source="JvA7WCJ4xtTVsa3NsU07-50" target="IG-o2yfS1DpHw0tAkYe_-202">
          <mxGeometry width="50" height="50" relative="1" as="geometry">
            <mxPoint x="-2011" y="-184" as="sourcePoint" />
            <mxPoint x="-2131" y="-17" as="targetPoint" />
          </mxGeometry>
        </mxCell>
        <mxCell id="JvA7WCJ4xtTVsa3NsU07-54" value="" style="endArrow=none;html=1;rounded=0;exitX=0;exitY=0;exitDx=0;exitDy=0;entryX=1;entryY=1;entryDx=0;entryDy=0;" edge="1" parent="1" source="JvA7WCJ4xtTVsa3NsU07-51" target="IG-o2yfS1DpHw0tAkYe_-202">
          <mxGeometry width="50" height="50" relative="1" as="geometry">
            <mxPoint x="-2141" y="-311" as="sourcePoint" />
            <mxPoint x="-2161" y="-17" as="targetPoint" />
          </mxGeometry>
        </mxCell>
        <mxCell id="JvA7WCJ4xtTVsa3NsU07-55" value="salario" style="ellipse;whiteSpace=wrap;html=1;" vertex="1" parent="1">
          <mxGeometry x="-2210.5" y="15" width="50.5" height="25" as="geometry" />
        </mxCell>
        <mxCell id="JvA7WCJ4xtTVsa3NsU07-56" value="fechaNac" style="ellipse;whiteSpace=wrap;html=1;" vertex="1" parent="1">
          <mxGeometry x="-1990" y="-48" width="60" height="28" as="geometry" />
        </mxCell>
        <mxCell id="JvA7WCJ4xtTVsa3NsU07-57" value="" style="endArrow=none;html=1;rounded=0;exitX=0.25;exitY=1;exitDx=0;exitDy=0;entryX=1;entryY=0;entryDx=0;entryDy=0;" edge="1" parent="1" target="JvA7WCJ4xtTVsa3NsU07-55" source="IG-o2yfS1DpHw0tAkYe_-202">
          <mxGeometry width="50" height="50" relative="1" as="geometry">
            <mxPoint x="-2131" y="-77" as="sourcePoint" />
            <mxPoint x="-2121" y="-198" as="targetPoint" />
          </mxGeometry>
        </mxCell>
        <mxCell id="JvA7WCJ4xtTVsa3NsU07-58" value="" style="endArrow=none;html=1;rounded=0;exitX=1;exitY=0.75;exitDx=0;exitDy=0;entryX=0;entryY=0.5;entryDx=0;entryDy=0;" edge="1" parent="1" target="JvA7WCJ4xtTVsa3NsU07-56" source="IG-o2yfS1DpHw0tAkYe_-202">
          <mxGeometry width="50" height="50" relative="1" as="geometry">
            <mxPoint x="-2071" y="-77" as="sourcePoint" />
            <mxPoint x="-2101" y="-178" as="targetPoint" />
          </mxGeometry>
        </mxCell>
        <mxCell id="JvA7WCJ4xtTVsa3NsU07-59" value="nombre" style="ellipse;whiteSpace=wrap;html=1;" vertex="1" parent="1">
          <mxGeometry x="-2058" y="27" width="50" height="24" as="geometry" />
        </mxCell>
        <mxCell id="JvA7WCJ4xtTVsa3NsU07-60" value="" style="endArrow=none;html=1;rounded=0;exitX=0.75;exitY=1;exitDx=0;exitDy=0;entryX=0;entryY=0;entryDx=0;entryDy=0;" edge="1" parent="1" target="JvA7WCJ4xtTVsa3NsU07-59" source="IG-o2yfS1DpHw0tAkYe_-202">
          <mxGeometry width="50" height="50" relative="1" as="geometry">
            <mxPoint x="-2041" y="-17" as="sourcePoint" />
            <mxPoint x="-2072" y="-33" as="targetPoint" />
          </mxGeometry>
        </mxCell>
        <mxCell id="JvA7WCJ4xtTVsa3NsU07-61" value="idTienda" style="ellipse;whiteSpace=wrap;html=1;" vertex="1" parent="1">
          <mxGeometry x="-2275" y="-80" width="50" height="24" as="geometry" />
        </mxCell>
        <mxCell id="JvA7WCJ4xtTVsa3NsU07-62" value="" style="endArrow=none;html=1;rounded=0;exitX=1;exitY=0.5;exitDx=0;exitDy=0;entryX=0;entryY=0.25;entryDx=0;entryDy=0;" edge="1" parent="1" source="JvA7WCJ4xtTVsa3NsU07-61" target="IG-o2yfS1DpHw0tAkYe_-202">
          <mxGeometry width="50" height="50" relative="1" as="geometry">
            <mxPoint x="-2170" y="-348" as="sourcePoint" />
            <mxPoint x="-2161" y="-32" as="targetPoint" />
          </mxGeometry>
        </mxCell>
        <mxCell id="JvA7WCJ4xtTVsa3NsU07-63" value="cargo" style="ellipse;whiteSpace=wrap;html=1;" vertex="1" parent="1">
          <mxGeometry x="-1985.25" y="-100" width="50.5" height="25" as="geometry" />
        </mxCell>
        <mxCell id="JvA7WCJ4xtTVsa3NsU07-64" value="" style="endArrow=none;html=1;rounded=0;exitX=1;exitY=0.5;exitDx=0;exitDy=0;entryX=0;entryY=1;entryDx=0;entryDy=0;" edge="1" parent="1" target="JvA7WCJ4xtTVsa3NsU07-63" source="IG-o2yfS1DpHw0tAkYe_-202">
          <mxGeometry width="50" height="50" relative="1" as="geometry">
            <mxPoint x="-2101" y="-77" as="sourcePoint" />
            <mxPoint x="-2076.5" y="-223.5" as="targetPoint" />
          </mxGeometry>
        </mxCell>
        <mxCell id="JvA7WCJ4xtTVsa3NsU07-65" value="" style="endArrow=none;html=1;rounded=0;exitX=1;exitY=1;exitDx=0;exitDy=0;entryX=0;entryY=0;entryDx=0;entryDy=0;" edge="1" parent="1" source="JvA7WCJ4xtTVsa3NsU07-52" target="IG-o2yfS1DpHw0tAkYe_-202">
          <mxGeometry width="50" height="50" relative="1" as="geometry">
            <mxPoint x="-2217" y="-8" as="sourcePoint" />
            <mxPoint x="-2151" y="-22" as="targetPoint" />
          </mxGeometry>
        </mxCell>
        <mxCell id="JvA7WCJ4xtTVsa3NsU07-66" value="NUSS" style="ellipse;whiteSpace=wrap;html=1;" vertex="1" parent="1">
          <mxGeometry x="-2273" y="-24" width="50" height="24" as="geometry" />
        </mxCell>
        <mxCell id="JvA7WCJ4xtTVsa3NsU07-67" value="" style="endArrow=none;html=1;rounded=0;exitX=1;exitY=0.5;exitDx=0;exitDy=0;entryX=0;entryY=0.75;entryDx=0;entryDy=0;" edge="1" parent="1" source="JvA7WCJ4xtTVsa3NsU07-66" target="IG-o2yfS1DpHw0tAkYe_-202">
          <mxGeometry width="50" height="50" relative="1" as="geometry">
            <mxPoint x="-2168" y="-292" as="sourcePoint" />
            <mxPoint x="-2168" y="-9" as="targetPoint" />
          </mxGeometry>
        </mxCell>
        <mxCell id="JvA7WCJ4xtTVsa3NsU07-68" value="numHabitantes" style="ellipse;whiteSpace=wrap;html=1;" vertex="1" parent="1">
          <mxGeometry x="-1680" y="-308" width="90" height="28" as="geometry" />
        </mxCell>
        <mxCell id="JvA7WCJ4xtTVsa3NsU07-69" value="" style="endArrow=none;html=1;rounded=0;exitX=0.5;exitY=0;exitDx=0;exitDy=0;entryX=0.75;entryY=1;entryDx=0;entryDy=0;" edge="1" parent="1" source="JvA7WCJ4xtTVsa3NsU07-68" target="IG-o2yfS1DpHw0tAkYe_-176">
          <mxGeometry width="50" height="50" relative="1" as="geometry">
            <mxPoint x="-1725" y="-625" as="sourcePoint" />
            <mxPoint x="-1624" y="-328" as="targetPoint" />
          </mxGeometry>
        </mxCell>
        <mxCell id="JvA7WCJ4xtTVsa3NsU07-70" value="nombre" style="ellipse;whiteSpace=wrap;html=1;" vertex="1" parent="1">
          <mxGeometry x="-1600" y="-362" width="50" height="22" as="geometry" />
        </mxCell>
        <mxCell id="JvA7WCJ4xtTVsa3NsU07-71" value="" style="endArrow=none;html=1;rounded=0;exitX=1;exitY=0.75;exitDx=0;exitDy=0;entryX=0;entryY=0.5;entryDx=0;entryDy=0;" edge="1" parent="1" target="JvA7WCJ4xtTVsa3NsU07-70" source="IG-o2yfS1DpHw0tAkYe_-176">
          <mxGeometry width="50" height="50" relative="1" as="geometry">
            <mxPoint x="-1624" y="-343" as="sourcePoint" />
            <mxPoint x="-1685" y="-492" as="targetPoint" />
          </mxGeometry>
        </mxCell>
        <mxCell id="JvA7WCJ4xtTVsa3NsU07-72" value="provincia" style="ellipse;whiteSpace=wrap;html=1;" vertex="1" parent="1">
          <mxGeometry x="-1770" y="-308" width="60" height="28" as="geometry" />
        </mxCell>
        <mxCell id="JvA7WCJ4xtTVsa3NsU07-73" value="" style="endArrow=none;html=1;rounded=0;exitX=0.25;exitY=1;exitDx=0;exitDy=0;entryX=0.5;entryY=0;entryDx=0;entryDy=0;" edge="1" parent="1" target="JvA7WCJ4xtTVsa3NsU07-72" source="IG-o2yfS1DpHw0tAkYe_-176">
          <mxGeometry width="50" height="50" relative="1" as="geometry">
            <mxPoint x="-1654" y="-328" as="sourcePoint" />
            <mxPoint x="-1656" y="-347" as="targetPoint" />
          </mxGeometry>
        </mxCell>
        <mxCell id="JvA7WCJ4xtTVsa3NsU07-74" value="&lt;u&gt;id&lt;/u&gt;" style="ellipse;whiteSpace=wrap;html=1;" vertex="1" parent="1">
          <mxGeometry x="-1600" y="-431.5" width="50.5" height="25" as="geometry" />
        </mxCell>
        <mxCell id="JvA7WCJ4xtTVsa3NsU07-75" value="" style="endArrow=none;html=1;rounded=0;exitX=1;exitY=0.25;exitDx=0;exitDy=0;entryX=0;entryY=1;entryDx=0;entryDy=0;" edge="1" parent="1" target="JvA7WCJ4xtTVsa3NsU07-74" source="IG-o2yfS1DpHw0tAkYe_-176">
          <mxGeometry width="50" height="50" relative="1" as="geometry">
            <mxPoint x="-1624" y="-358" as="sourcePoint" />
            <mxPoint x="-1660.5" y="-537.5" as="targetPoint" />
          </mxGeometry>
        </mxCell>
        <mxCell id="JvA7WCJ4xtTVsa3NsU07-76" value="numEmpleados" style="ellipse;whiteSpace=wrap;html=1;" vertex="1" parent="1">
          <mxGeometry x="-2240" y="-459.5" width="90" height="28" as="geometry" />
        </mxCell>
        <mxCell id="JvA7WCJ4xtTVsa3NsU07-77" value="" style="endArrow=none;html=1;rounded=0;exitX=0.5;exitY=1;exitDx=0;exitDy=0;entryX=0;entryY=0.25;entryDx=0;entryDy=0;" edge="1" parent="1" source="JvA7WCJ4xtTVsa3NsU07-76" target="IG-o2yfS1DpHw0tAkYe_-160">
          <mxGeometry width="50" height="50" relative="1" as="geometry">
            <mxPoint x="-2205" y="-769" as="sourcePoint" />
            <mxPoint x="-2150" y="-498" as="targetPoint" />
          </mxGeometry>
        </mxCell>
        <mxCell id="JvA7WCJ4xtTVsa3NsU07-79" value="" style="endArrow=none;html=1;rounded=0;exitX=0;exitY=1;exitDx=0;exitDy=0;entryX=0.5;entryY=0;entryDx=0;entryDy=0;" edge="1" parent="1" target="JvA7WCJ4xtTVsa3NsU07-78" source="IG-o2yfS1DpHw0tAkYe_-160">
          <mxGeometry width="50" height="50" relative="1" as="geometry">
            <mxPoint x="-2120" y="-513" as="sourcePoint" />
            <mxPoint x="-2165" y="-636" as="targetPoint" />
          </mxGeometry>
        </mxCell>
        <mxCell id="JvA7WCJ4xtTVsa3NsU07-80" value="&lt;u&gt;id&lt;/u&gt;" style="ellipse;whiteSpace=wrap;html=1;" vertex="1" parent="1">
          <mxGeometry x="-2165.25" y="-310" width="50.5" height="25" as="geometry" />
        </mxCell>
        <mxCell id="JvA7WCJ4xtTVsa3NsU07-81" value="" style="endArrow=none;html=1;rounded=0;exitX=0.25;exitY=1;exitDx=0;exitDy=0;entryX=0.5;entryY=0;entryDx=0;entryDy=0;" edge="1" parent="1" target="JvA7WCJ4xtTVsa3NsU07-80" source="IG-o2yfS1DpHw0tAkYe_-160">
          <mxGeometry width="50" height="50" relative="1" as="geometry">
            <mxPoint x="-2120" y="-543" as="sourcePoint" />
            <mxPoint x="-2140.5" y="-681.5" as="targetPoint" />
          </mxGeometry>
        </mxCell>
        <mxCell id="JvA7WCJ4xtTVsa3NsU07-82" value="idCiudad" style="ellipse;whiteSpace=wrap;html=1;" vertex="1" parent="1">
          <mxGeometry x="-2058" y="-474" width="58" height="24" as="geometry" />
        </mxCell>
        <mxCell id="JvA7WCJ4xtTVsa3NsU07-83" value="" style="endArrow=none;html=1;rounded=0;exitX=0.75;exitY=0;exitDx=0;exitDy=0;entryX=0.5;entryY=1;entryDx=0;entryDy=0;" edge="1" parent="1" target="JvA7WCJ4xtTVsa3NsU07-82" source="IG-o2yfS1DpHw0tAkYe_-160">
          <mxGeometry width="50" height="50" relative="1" as="geometry">
            <mxPoint x="-2114.25" y="-503" as="sourcePoint" />
            <mxPoint x="-2124.75" y="-830.5" as="targetPoint" />
          </mxGeometry>
        </mxCell>
        <mxCell id="JvA7WCJ4xtTVsa3NsU07-84" value="telefono" style="ellipse;whiteSpace=wrap;html=1;" vertex="1" parent="1">
          <mxGeometry x="-2110.5" y="-499" width="50.5" height="25" as="geometry" />
        </mxCell>
        <mxCell id="JvA7WCJ4xtTVsa3NsU07-85" value="" style="endArrow=none;html=1;rounded=0;exitX=0.5;exitY=0;exitDx=0;exitDy=0;entryX=0.5;entryY=1;entryDx=0;entryDy=0;" edge="1" parent="1" target="JvA7WCJ4xtTVsa3NsU07-84" source="IG-o2yfS1DpHw0tAkYe_-160">
          <mxGeometry width="50" height="50" relative="1" as="geometry">
            <mxPoint x="-2110" y="-334" as="sourcePoint" />
            <mxPoint x="-2120.5" y="-661.5" as="targetPoint" />
          </mxGeometry>
        </mxCell>
        <mxCell id="JvA7WCJ4xtTVsa3NsU07-86" value="direccion" style="ellipse;whiteSpace=wrap;html=1;" vertex="1" parent="1">
          <mxGeometry x="-2175.5" y="-490" width="55.5" height="20" as="geometry" />
        </mxCell>
        <mxCell id="JvA7WCJ4xtTVsa3NsU07-87" value="" style="endArrow=none;html=1;rounded=0;exitX=0.221;exitY=-0.015;exitDx=0;exitDy=0;entryX=0.5;entryY=1;entryDx=0;entryDy=0;exitPerimeter=0;" edge="1" parent="1" target="JvA7WCJ4xtTVsa3NsU07-86" source="IG-o2yfS1DpHw0tAkYe_-160">
          <mxGeometry width="50" height="50" relative="1" as="geometry">
            <mxPoint x="-2100" y="-324" as="sourcePoint" />
            <mxPoint x="-2110.5" y="-651.5" as="targetPoint" />
          </mxGeometry>
        </mxCell>
        <mxCell id="JvA7WCJ4xtTVsa3NsU07-88" value="horario" style="ellipse;whiteSpace=wrap;html=1;" vertex="1" parent="1">
          <mxGeometry x="-1995.25" y="-449" width="50.5" height="25" as="geometry" />
        </mxCell>
        <mxCell id="JvA7WCJ4xtTVsa3NsU07-89" value="" style="endArrow=none;html=1;rounded=0;exitX=1;exitY=0.25;exitDx=0;exitDy=0;entryX=0;entryY=1;entryDx=0;entryDy=0;" edge="1" parent="1" target="JvA7WCJ4xtTVsa3NsU07-88" source="IG-o2yfS1DpHw0tAkYe_-160">
          <mxGeometry width="50" height="50" relative="1" as="geometry">
            <mxPoint x="-1994.75" y="-459" as="sourcePoint" />
            <mxPoint x="-2005.25" y="-786.5" as="targetPoint" />
          </mxGeometry>
        </mxCell>
        <mxCell id="JvA7WCJ4xtTVsa3NsU07-90" value="correoElectronico" style="ellipse;whiteSpace=wrap;html=1;" vertex="1" parent="1">
          <mxGeometry x="-2315.75" y="-748.5" width="105.25" height="30.5" as="geometry" />
        </mxCell>
        <mxCell id="JvA7WCJ4xtTVsa3NsU07-91" value="idCiudad" style="ellipse;whiteSpace=wrap;html=1;" vertex="1" parent="1">
          <mxGeometry x="-2233.5" y="-788" width="58" height="24" as="geometry" />
        </mxCell>
        <mxCell id="JvA7WCJ4xtTVsa3NsU07-92" value="" style="endArrow=none;html=1;rounded=0;entryX=0.5;entryY=1;entryDx=0;entryDy=0;exitX=0.25;exitY=0;exitDx=0;exitDy=0;" edge="1" parent="1" target="JvA7WCJ4xtTVsa3NsU07-91" source="IG-o2yfS1DpHw0tAkYe_-156">
          <mxGeometry width="50" height="50" relative="1" as="geometry">
            <mxPoint x="-2170" y="-840" as="sourcePoint" />
            <mxPoint x="-2210" y="-1151.5" as="targetPoint" />
          </mxGeometry>
        </mxCell>
        <mxCell id="JvA7WCJ4xtTVsa3NsU07-93" value="telefono" style="ellipse;whiteSpace=wrap;html=1;" vertex="1" parent="1">
          <mxGeometry x="-2093" y="-780" width="50.5" height="16" as="geometry" />
        </mxCell>
        <mxCell id="JvA7WCJ4xtTVsa3NsU07-94" value="" style="endArrow=none;html=1;rounded=0;exitX=0.75;exitY=0;exitDx=0;exitDy=0;entryX=0.5;entryY=1;entryDx=0;entryDy=0;" edge="1" parent="1" target="JvA7WCJ4xtTVsa3NsU07-93" source="IG-o2yfS1DpHw0tAkYe_-156">
          <mxGeometry width="50" height="50" relative="1" as="geometry">
            <mxPoint x="-2185.25" y="-735" as="sourcePoint" />
            <mxPoint x="-2205.75" y="-982.5" as="targetPoint" />
          </mxGeometry>
        </mxCell>
        <mxCell id="JvA7WCJ4xtTVsa3NsU07-95" value="direccion" style="ellipse;whiteSpace=wrap;html=1;" vertex="1" parent="1">
          <mxGeometry x="-2058" y="-750" width="55.5" height="20" as="geometry" />
        </mxCell>
        <mxCell id="JvA7WCJ4xtTVsa3NsU07-96" value="" style="endArrow=none;html=1;rounded=0;entryX=0.5;entryY=1;entryDx=0;entryDy=0;exitX=1;exitY=0.25;exitDx=0;exitDy=0;" edge="1" parent="1" target="JvA7WCJ4xtTVsa3NsU07-95" source="IG-o2yfS1DpHw0tAkYe_-156">
          <mxGeometry width="50" height="50" relative="1" as="geometry">
            <mxPoint x="-2218" y="-736" as="sourcePoint" />
            <mxPoint x="-2195.75" y="-972.5" as="targetPoint" />
          </mxGeometry>
        </mxCell>
        <mxCell id="JvA7WCJ4xtTVsa3NsU07-97" value="NIF" style="ellipse;whiteSpace=wrap;html=1;" vertex="1" parent="1">
          <mxGeometry x="-2161.75" y="-794" width="47" height="20" as="geometry" />
        </mxCell>
        <mxCell id="JvA7WCJ4xtTVsa3NsU07-98" value="" style="endArrow=none;html=1;rounded=0;entryX=0.5;entryY=1;entryDx=0;entryDy=0;exitX=0.5;exitY=0;exitDx=0;exitDy=0;" edge="1" parent="1" source="IG-o2yfS1DpHw0tAkYe_-156" target="JvA7WCJ4xtTVsa3NsU07-97">
          <mxGeometry width="50" height="50" relative="1" as="geometry">
            <mxPoint x="-2000" y="-750" as="sourcePoint" />
            <mxPoint x="-2067" y="-743" as="targetPoint" />
          </mxGeometry>
        </mxCell>
        <mxCell id="JvA7WCJ4xtTVsa3NsU07-99" value="" style="endArrow=none;html=1;rounded=0;exitX=0;exitY=0.5;exitDx=0;exitDy=0;entryX=0.5;entryY=1;entryDx=0;entryDy=0;" edge="1" parent="1" source="IG-o2yfS1DpHw0tAkYe_-156" target="JvA7WCJ4xtTVsa3NsU07-90">
          <mxGeometry width="50" height="50" relative="1" as="geometry">
            <mxPoint x="-2109" y="-704" as="sourcePoint" />
            <mxPoint x="-2045" y="-735" as="targetPoint" />
          </mxGeometry>
        </mxCell>
        <mxCell id="JvA7WCJ4xtTVsa3NsU07-100" value="nombre" style="ellipse;whiteSpace=wrap;html=1;" vertex="1" parent="1">
          <mxGeometry x="-2175.5" y="-603" width="50" height="22" as="geometry" />
        </mxCell>
        <mxCell id="JvA7WCJ4xtTVsa3NsU07-101" value="" style="endArrow=none;html=1;rounded=0;exitX=0.5;exitY=1;exitDx=0;exitDy=0;entryX=0.5;entryY=0;entryDx=0;entryDy=0;" edge="1" parent="1" target="JvA7WCJ4xtTVsa3NsU07-100" source="IG-o2yfS1DpHw0tAkYe_-156">
          <mxGeometry width="50" height="50" relative="1" as="geometry">
            <mxPoint x="-2115.5" y="-637" as="sourcePoint" />
            <mxPoint x="-2120.5" y="-919" as="targetPoint" />
          </mxGeometry>
        </mxCell>
        <mxCell id="JvA7WCJ4xtTVsa3NsU07-102" value="&lt;u&gt;id&lt;/u&gt;" style="ellipse;whiteSpace=wrap;html=1;" vertex="1" parent="1">
          <mxGeometry x="-2114.75" y="-600" width="50.5" height="25" as="geometry" />
        </mxCell>
        <mxCell id="JvA7WCJ4xtTVsa3NsU07-103" value="" style="endArrow=none;html=1;rounded=0;exitX=0.75;exitY=1;exitDx=0;exitDy=0;entryX=0.5;entryY=0;entryDx=0;entryDy=0;" edge="1" parent="1" target="JvA7WCJ4xtTVsa3NsU07-102" source="IG-o2yfS1DpHw0tAkYe_-156">
          <mxGeometry width="50" height="50" relative="1" as="geometry">
            <mxPoint x="-2085.5" y="-637" as="sourcePoint" />
            <mxPoint x="-2096" y="-964.5" as="targetPoint" />
          </mxGeometry>
        </mxCell>
      </root>
    </mxGraphModel>
  </diagram>
</mxfile>
